<?xml version="1.0" standalone="no"?>
<!DOCTYPE svg PUBLIC "-//W3C//DTD SVG 20010904//EN"
 "http://www.w3.org/TR/2001/REC-SVG-20010904/DTD/svg10.dtd">
<svg version="1.0" xmlns="http://www.w3.org/2000/svg"
 width="500.000000pt" height="500.000000pt" viewBox="0 0 500.000000 500.000000"
 preserveAspectRatio="xMidYMid meet">

<g transform="translate(0.000000,500.000000) scale(0.100000,-0.100000)"
fill="#000000" stroke="none">
<path d="M2455 3883 c-103 -55 -554 -320 -572 -336 l-23 -20 0 -358 c0 -325 2
-359 18 -377 28 -33 594 -355 622 -355 20 0 490 263 604 338 l26 17 0 170 c0
93 -3 168 -7 166 -5 -2 -32 -16 -60 -31 l-53 -27 0 -93 c-1 -61 -5 -98 -14
-110 -19 -25 -473 -287 -498 -287 -22 0 -458 249 -493 282 -19 18 -20 31 -20
303 0 271 1 285 20 304 29 28 469 281 489 281 23 0 57 -18 290 -154 109 -64
205 -124 212 -134 9 -12 13 -54 14 -144 0 -87 4 -128 11 -128 6 0 33 12 60 27
l50 26 -3 151 -3 151 -305 178 c-167 97 -311 177 -320 177 -8 -1 -28 -8 -45
-17z"/>
<path d="M2300 3537 c-190 -112 -206 -128 -153 -164 73 -51 332 -193 351 -193
12 0 80 34 151 75 71 41 132 75 135 75 3 0 6 -75 6 -167 l0 -168 -134 -77
c-73 -43 -144 -78 -157 -78 -13 0 -83 34 -156 76 l-132 76 -3 116 -3 116 -45
27 c-82 50 -80 54 -80 -150 l0 -179 199 -116 c110 -64 208 -116 218 -116 17 0
371 199 407 229 14 12 16 44 16 246 0 260 6 239 -82 289 l-47 28 -134 -76
c-85 -49 -144 -76 -162 -76 -31 1 -136 57 -142 77 -5 15 111 83 142 83 13 0
35 -5 49 -11 20 -10 32 -7 75 17 31 18 50 35 49 44 -4 18 -145 100 -173 100
-11 0 -99 -47 -195 -103z"/>
<path d="M1260 2080 c-18 -18 -20 -33 -20 -159 0 -139 0 -140 26 -160 24 -19
40 -21 155 -21 115 0 131 2 149 20 26 26 32 53 28 130 l-3 65 -107 3 -108 3 0
-35 0 -35 73 -3 72 -3 3 -37 3 -38 -110 0 -111 0 0 110 0 110 145 0 145 0 0
35 0 35 -160 0 c-147 0 -162 -2 -180 -20z"/>
<path d="M1670 1945 c0 -152 1 -156 25 -180 24 -24 28 -25 180 -25 l155 0 0
35 0 35 -145 0 -145 0 0 145 0 145 -35 0 -35 0 0 -155z"/>
<path d="M2129 2081 c-22 -18 -24 -28 -27 -126 -7 -207 0 -215 183 -215 180 0
175 -5 175 180 0 186 6 180 -174 180 -117 0 -137 -2 -157 -19z m261 -161 l0
-111 -107 3 -108 3 -3 108 -3 107 111 0 110 0 0 -110z"/>
<path d="M2540 1920 l0 -180 149 0 c82 0 157 3 166 6 39 15 60 120 31 159 -11
16 -11 21 0 33 8 8 14 34 14 63 0 40 -5 55 -25 74 -24 24 -28 25 -180 25
l-155 0 0 -180z m290 75 l0 -35 -110 0 -110 0 0 35 0 35 110 0 110 0 0 -35z
m-2 -147 l3 -38 -110 0 -111 0 0 40 0 41 108 -3 107 -3 3 -37z"/>
<path d="M2992 2077 c-21 -22 -22 -33 -22 -180 l0 -157 35 0 35 0 0 75 0 75
110 0 110 0 0 -75 0 -75 35 0 35 0 0 154 c0 140 -2 156 -21 180 -20 26 -21 26
-158 26 -131 0 -139 -1 -159 -23z m268 -82 l0 -35 -110 0 -110 0 0 35 0 35
110 0 110 0 0 -35z"/>
<path d="M3400 1945 c0 -152 1 -156 25 -180 24 -24 28 -25 180 -25 l155 0 0
35 0 35 -145 0 -145 0 0 145 0 145 -35 0 -35 0 0 -155z"/>
<path d="M1670 1525 l0 -35 70 0 70 0 0 -145 0 -145 35 0 35 0 0 145 0 145 75
0 75 0 0 35 0 35 -180 0 -180 0 0 -35z"/>
<path d="M2129 1541 c-22 -18 -24 -28 -27 -126 -7 -211 -3 -215 205 -215 l153
0 0 35 0 34 -142 3 -143 3 0 35 0 35 143 3 142 3 0 34 0 35 -145 0 -145 0 0
35 0 35 145 0 145 0 0 35 0 35 -154 0 c-136 0 -156 -2 -177 -19z"/>
<path d="M2560 1540 c-18 -18 -20 -33 -20 -159 0 -139 0 -140 26 -160 24 -19
40 -21 180 -21 l154 0 0 35 0 35 -145 0 -145 0 0 110 0 110 145 0 145 0 0 35
0 35 -160 0 c-147 0 -162 -2 -180 -20z"/>
<path d="M2970 1380 l0 -180 35 0 35 0 0 75 0 75 110 0 110 0 0 -75 0 -75 35
0 35 0 0 180 0 180 -35 0 -35 0 0 -70 0 -70 -110 0 -110 0 0 70 0 70 -35 0
-35 0 0 -180z"/>
</g>
</svg>
